<mxfile host="app.diagrams.net" modified="2024-06-28T14:14:20.730Z" agent="Mozilla/5.0 (Windows NT 10.0; Win64; x64) AppleWebKit/537.36 (KHTML, like Gecko) Chrome/126.0.0.0 Safari/537.36" version="24.4.13" etag="I-FggGW_hINS9Rt181MM" type="github">
  <diagram name="第 1 页" id="v2omvZWVaRQWJygjtJmG">
    <mxGraphModel>
      <root>
        <mxCell id="0" />
        <mxCell id="1" parent="0" />
      </root>
    </mxGraphModel>
  </diagram>
</mxfile>
